<svg xmlns="http://www.w3.org/2000/svg" width="35.329" height="33.396" viewBox="0 0 35.329 33.396"><g transform="translate(0 -14)"><path d="M1.875,23.934H7.866A1.878,1.878,0,0,1,9.741,25.81v6.9h2.241a5.147,5.147,0,0,1-.14-1.608h0a15.04,15.04,0,0,1,1.416-6.578,7.059,7.059,0,0,1,2.193-2.644,4.8,4.8,0,0,1-1.284-3.4,4.391,4.391,0,1,1,8.781,0A.517.517,0,0,1,22.43,19h-.352a3.644,3.644,0,0,1,.05.6,3.593,3.593,0,0,1-2.887,3.52,8.722,8.722,0,0,1,.258,2.251l1.291,1.11,3.141.254,3.623-1.2a1.1,1.1,0,0,1,1.035,0,.919.919,0,0,1,.322.772V29a.517.517,0,0,1-.518.518h-.616l.945,3.265a.518.518,0,0,1-.994.288L26.7,29.513H25.227c1.83,5.58.786,9.305-.819,13.075h.93l3.875-4.332-.819-2.83a.518.518,0,0,1,.994-.288l.784,2.707a5.205,5.205,0,0,1,5.144,4.035.517.517,0,0,1-.388.62l-.735.169a3.96,3.96,0,0,1-7.652,1.761l-.58.133a.676.676,0,0,1-.5-.028.594.594,0,0,1-.291-.4,5.148,5.148,0,0,1-.083-.515H14.262a4.41,4.41,0,0,1-8.728,0H5.043a.709.709,0,0,1-.537-.195.663.663,0,0,1-.183-.5,5.866,5.866,0,0,1,.212-1.4,8.074,8.074,0,0,1,.572-5.22,1.362,1.362,0,0,1-.618-1.14V33.741H1.875A1.878,1.878,0,0,1,0,31.865V25.81a1.877,1.877,0,0,1,1.875-1.876ZM28.7,45.527a2.9,2.9,0,0,0,2.207.372h0a2.932,2.932,0,0,0,2.267-3L27.56,44.2A2.909,2.909,0,0,0,28.7,45.527Zm-2.589-2.061,8.05-1.852a4.168,4.168,0,0,0-4.12-2.73L26.1,43.293Q26.1,43.38,26.109,43.466Zm-7.817-9.018a4.607,4.607,0,0,1,.15,1.561v1.953h1.895V35.283c0-3.029-1.653-3.569-2.4-3.658H12.869a2.194,2.194,0,0,0,.47,1.486,2.4,2.4,0,0,0,1.8.538l1.858,0a1.247,1.247,0,0,1,1.3.8ZM18.443,39v1.236h3.69a1.475,1.475,0,0,0-.357-.885A1.277,1.277,0,0,0,20.855,39ZM12.892,30.59H17.6a19.323,19.323,0,0,0,.5-1.915l-1.431-.929a2.136,2.136,0,0,1-1.115-1.966,1.83,1.83,0,0,1,1.14-1.5,1.868,1.868,0,0,1,1.737.191,6.11,6.11,0,0,0-.25-1.312,3.648,3.648,0,0,1-.655-.129,4.287,4.287,0,0,1-1.208-.479C15.316,23.149,13.124,25.08,12.892,30.59Zm8.983-12.63a3.351,3.351,0,0,0-6.673.518,3.514,3.514,0,0,0,1.934,3.336V19.09a1.03,1.03,0,0,1,1.04-1.128l.047,0Zm-.782,1.631a2.577,2.577,0,0,0-.069-.6H18.248c-.032,0-.055.007-.072.011a.615.615,0,0,0-.005.085v3.028a2.56,2.56,0,0,0,.371.027h0A2.554,2.554,0,0,0,21.093,19.591Zm.671,8-1.226-.1a.518.518,0,0,1-.3-.123l-2.212-1.9h0a1.028,1.028,0,0,0-.665-.279.8.8,0,0,0-.786.694,1.142,1.142,0,0,0,.648,1l2.465,1.6h2.071V27.59Zm2.187.177L22.8,27.674v.8h1.339c.174,0,.216-.144.221-.265A.411.411,0,0,0,23.951,27.767Zm1.225-.357a1.495,1.495,0,0,1,.191,1.064s0,0,0,0h2.507V26.513l-2.7.893Zm-1.041,2.1h-4.6a.517.517,0,0,1-.282-.083l-.234-.152c-.113.5-.241.983-.381,1.44,1.055.312,2.731,1.318,2.731,4.565v2.731a2.16,2.16,0,0,1,1.152.619,2.524,2.524,0,0,1,.647,1.6h1.044a15.219,15.219,0,0,0-.081-10.72Zm-.853,13.073c.191-.44.376-.878.549-1.318H18.457c-.7,0-1.05-.317-1.05-.942v-3.8H13.323a.518.518,0,1,1,0-1.035H17.4a2.343,2.343,0,0,0-.079-.676c-.026-.069-.049-.129-.333-.129l-1.858,0a3.339,3.339,0,0,1-2.545-.861c-.025-.027-.049-.055-.073-.083H5.524v1.422a.332.332,0,0,0,.327.328H11a.518.518,0,1,1,0,1.035H6.155a6.11,6.11,0,0,0-.755,3.2,5.616,5.616,0,0,1,8.554-.668,5.7,5.7,0,0,1,1.627,3.532ZM9.9,46.362a3.41,3.41,0,0,0,3.312-2.739H6.586A3.41,3.41,0,0,0,9.9,46.362ZM6,42.587h8.544a4.642,4.642,0,0,0-4.579-4.166,4.592,4.592,0,0,0-4.4,3.291l-.006.018a4.777,4.777,0,0,0-.171.857ZM1.035,31.865a.841.841,0,0,0,.84.841H8.706V30.034H1.035Zm0-2.867H8.706V27.9H1.035Zm0-2.136H8.706V25.81a.841.841,0,0,0-.84-.841H1.875a.841.841,0,0,0-.84.841Z" transform="translate(0)" fill="#fff"/></g></svg>