<svg xmlns="http://www.w3.org/2000/svg" width="31.878" height="31.485" viewBox="0 0 31.878 31.485">
  <g transform="translate(7.943 22.428)">
    <path d="M121.227,320a4.529,4.529,0,1,0,4.529,4.529A4.448,4.448,0,0,0,121.227,320Zm0,7.548a3.019,3.019,0,1,1,3.019-3.019A3.028,3.028,0,0,1,121.227,327.548Z" transform="translate(-116.698 -320)" />
  </g>
  <g transform="translate(20.386 22.428)">
    <path d="M281.227,320a4.529,4.529,0,1,0,4.529,4.529A4.448,4.448,0,0,0,281.227,320Zm0,7.548a3.019,3.019,0,1,1,3.019-3.019A3.028,3.028,0,0,1,281.227,327.548Z" transform="translate(-276.698 -320)" />
  </g>
  <g transform="translate(0)">
    <g transform="translate(0)">
      <path d="M48.02,4.4H25.129L22.853,0H17.5V1.1h4.418l7.229,14.3h-.937a2.482,2.482,0,0,0-2.677,2.2,2.482,2.482,0,0,0,2.677,2.2H46.949V18.7H28.207c-.8,0-1.339-.44-1.339-1.1s.535-1.1,1.339-1.1h17.4a1.272,1.272,0,0,0,1.339-.88l2.41-9.9C49.493,5.06,48.823,4.4,48.02,4.4Zm-2.41,11H30.617L25.53,5.5H48.02Z" transform="translate(-17.498)" />
    </g>
  </g>
</svg>