<svg xmlns="http://www.w3.org/2000/svg" width="26.734" height="36.023" viewBox="0 0 26.734 36.023"><g transform="translate(-69.649 -4.79)"><path d="M124,374.43v6.527a.43.43,0,0,0,.43.43h17.645a.43.43,0,0,0,.43-.43V374.43a.43.43,0,0,0-.43-.43H124.43A.43.43,0,0,0,124,374.43Zm.861.43h16.785v5.667H124.861Z" transform="translate(-50.452 -342.727)" fill="#fff"/><path d="M150.148,398h-.717a.43.43,0,0,0,0,.861h.717a.43.43,0,0,0,0-.861Z" transform="translate(-73.659 -365.005)" fill="#fff"/><path d="M184.962,398H177.43a.43.43,0,0,0,0,.861h7.532a.43.43,0,0,0,0-.861Z" transform="translate(-99.65 -365.005)" fill="#fff"/><path d="M96.244,7.486,93.441,4.9a.43.43,0,0,0-.292-.114H73.437a.43.43,0,0,0-.263.089L69.817,7.461h0a.429.429,0,0,0-.168.341v.5A2.57,2.57,0,0,0,71.9,10.866V26.7h-.5a1.506,1.506,0,0,0,0,3.013V40.383a.43.43,0,0,0,.43.43H93.776a.43.43,0,0,0,.43-.43V29.716h.43a1.506,1.506,0,0,0,0-3.013H93.7V10.885l.093,0A2.559,2.559,0,0,0,96.383,8.3V7.8a.429.429,0,0,0-.139-.316ZM92.981,5.651,94.85,7.372H91.828l-1.6-1.722Zm-5.5,17.076-2.7-.915v-.286a3.37,3.37,0,0,0,1.584-2.564,1.18,1.18,0,0,0,.6-1.324.983.983,0,0,0-.468-.625l.047-.684a3.541,3.541,0,1,0-7.074-.248c0,.087,0,.168.008.248l.047.681a.979.979,0,0,0-.469.625,1.181,1.181,0,0,0,.6,1.328,3.343,3.343,0,0,0,.974,2.08,3.38,3.38,0,0,0,.612.484v.285l-2.7.915a2.557,2.557,0,0,0-1.4,2.073l0,1.9H72.759V10.835a2.57,2.57,0,0,0,1.454-.862,3.291,3.291,0,0,0,5.941.444,3.35,3.35,0,0,0,.537.7,3.284,3.284,0,0,0,5.207-.73,3.347,3.347,0,0,0,.553.73A3.286,3.286,0,0,0,91.841,10c.039.045.08.09.123.133a2.566,2.566,0,0,0,.88.574V26.7H88.891V24.8a2.559,2.559,0,0,0-1.4-2.073Zm.544,2.128V26.7h-.491V25.287a2.358,2.358,0,0,1,.278-1.11A1.69,1.69,0,0,1,88.03,24.854Zm-5.923-2.02V21.9a3.37,3.37,0,0,0,1.823,0v.931A1.886,1.886,0,0,1,82.107,22.834Zm1.823.939V26.7H82.107v-2.93a2.719,2.719,0,0,0,1.823,0Zm-.912-2.6A2.476,2.476,0,0,1,81.88,20.9a2.519,2.519,0,0,1-.637-.463,2.493,2.493,0,0,1-.735-1.779.43.43,0,0,0-.356-.424.317.317,0,0,1-.262-.313.308.308,0,0,1,.009-.077l.019.011a.429.429,0,0,0,.1.036c.819.193.932.185,1.1.065a.439.439,0,0,0,.178-.317l.078-.978a3.213,3.213,0,0,0,2.591-.992,3.053,3.053,0,0,1,.944,1.567l.143.588a.43.43,0,0,0,.6.288l.494-.231h0a.318.318,0,0,1-.258.354.436.436,0,0,0-.356.428A2.509,2.509,0,0,1,83.017,21.169Zm-2.68-5.088a2.68,2.68,0,1,1,5.354.188l-.033.476a3.913,3.913,0,0,0-1.525-2.032.43.43,0,0,0-.593.106,2.35,2.35,0,0,1-2.164.974l-.235-.025a.55.55,0,0,0-.607.5l-.067.836-.068-.014-.057-.824C80.339,16.209,80.337,16.147,80.337,16.08Zm4.453,6.64,2.4.826a3.219,3.219,0,0,0-.512,1.742V26.7H84.79Zm-5.932.816,2.388-.817V26.7h-1.87V25.287a3.22,3.22,0,0,0-.518-1.751Zm-.343,1.751V26.7H78V24.855a1.693,1.693,0,0,1,.225-.7,2.359,2.359,0,0,1,.288,1.129ZM74.853,8.794V8.233h4.868v.561a2.434,2.434,0,0,1-4.868,0Zm5.729,0V8.233H85.45v.561a2.434,2.434,0,1,1-4.868,0Zm5.759,0V8.233H91.21v.561a2.434,2.434,0,1,1-4.868,0Zm2.709-3.143,1.6,1.722H86.135l-.944-1.722Zm-7.227,0h2.385l.944,1.722H80.879Zm-.982,0L79.9,7.372H75.521l1.93-1.722Zm-7.258,0h2.574l-1.93,1.722H71.345ZM71.012,9.525a1.717,1.717,0,0,1-.5-1.224V8.233h3.452V8.3a1.72,1.72,0,0,1-1.653,1.724l-.073,0A1.717,1.717,0,0,1,71.012,9.525ZM94.636,27.564a.646.646,0,1,1,0,1.291H77.572a.43.43,0,1,0,0,.861H93.345V39.953H72.257V29.716h2.714a.43.43,0,1,0,0-.861H71.4a.646.646,0,0,1,0-1.291ZM95.522,8.3A1.707,1.707,0,0,1,93.8,10.027a1.763,1.763,0,0,1-.42-.05A1.709,1.709,0,0,1,92.071,8.3V8.233h3.452Z" transform="translate(0 0)" fill="#fff"/></g></svg>